<?xml version="1.0" standalone="no"?>
<!DOCTYPE svg PUBLIC "-//W3C//DTD SVG 20010904//EN"
 "http://www.w3.org/TR/2001/REC-SVG-20010904/DTD/svg10.dtd">
<svg version="1.0" xmlns="http://www.w3.org/2000/svg"
 width="472.000000pt" height="412.000000pt" viewBox="0 0 472.000000 412.000000"
 preserveAspectRatio="xMidYMid meet">
<metadata>
Created by potrace 1.15, written by Peter Selinger 2001-2017
</metadata>
<g transform="translate(0.000000,412.000000) scale(0.100000,-0.100000)"
fill="#000000" stroke="none">
<path d="M1164 4092 c-8 -12 -12 -26 -9 -31 2 -5 -2 -11 -10 -15 -8 -3 -15
-12 -15 -21 0 -8 -4 -15 -9 -15 -5 0 -13 -9 -16 -21 -4 -12 -18 -37 -31 -57
-14 -20 -22 -42 -19 -49 2 -8 1 -11 -5 -8 -13 8 -41 -50 -34 -72 5 -14 4 -15
-4 -4 -8 11 -14 7 -27 -19 -10 -19 -26 -49 -36 -67 -11 -19 -19 -41 -19 -50 0
-9 -3 -13 -6 -10 -4 3 -35 -44 -70 -106 -35 -62 -68 -119 -73 -127 -39 -60
-161 -280 -161 -288 0 -6 -4 -12 -8 -14 -11 -4 -135 -220 -135 -235 0 -7 -5
-13 -10 -13 -5 0 -6 -7 -3 -16 3 -8 2 -13 -2 -10 -5 3 -55 -74 -111 -171 -79
-136 -99 -178 -89 -185 10 -8 9 -9 -2 -5 -12 3 -32 -24 -74 -98 -33 -57 -58
-107 -57 -111 2 -4 -2 -10 -7 -13 -12 -7 -79 -121 -84 -141 -2 -7 -11 -22 -21
-32 -16 -17 -16 -20 3 -58 11 -22 25 -40 31 -40 6 0 8 -4 5 -9 -3 -4 8 -29 24
-55 17 -26 30 -49 30 -51 0 -7 91 -159 98 -165 4 -3 8 -12 10 -20 2 -8 10 -22
18 -31 8 -8 14 -19 14 -22 0 -15 103 -187 111 -187 5 0 9 -9 9 -20 0 -11 8
-28 18 -38 9 -10 18 -25 20 -32 5 -23 205 -365 220 -377 9 -7 12 -13 8 -13 -4
0 3 -18 15 -40 12 -21 25 -37 29 -35 4 3 7 -1 6 -8 -2 -20 118 -226 128 -220
5 4 6 1 2 -5 -8 -14 23 -64 35 -56 5 3 6 -2 3 -10 -3 -8 10 -38 28 -68 19 -29
37 -61 41 -71 4 -10 11 -15 17 -12 6 4 7 -1 3 -11 -5 -13 -3 -15 7 -9 8 5 11
4 7 -3 -4 -5 44 -99 106 -209 l113 -198 227 -2 c194 -2 227 0 227 12 0 8 4 15
10 15 5 0 7 -7 4 -15 -5 -13 6 -15 70 -15 44 0 76 4 76 10 0 6 5 10 11 10 5 0
7 -5 4 -10 -4 -7 116 -10 360 -10 284 1 364 3 358 13 -5 9 -4 9 8 0 20 -16
789 -16 789 1 0 7 3 7 8 -2 7 -9 36 -12 112 -10 l104 3 67 117 c38 65 65 118
61 118 -4 0 -2 4 4 8 22 14 226 381 218 393 -4 8 -3 9 5 5 6 -4 14 0 18 11 4
10 17 33 30 52 13 19 23 42 23 52 0 10 6 22 13 26 14 8 97 145 97 159 0 4 6
15 14 23 7 9 27 41 43 71 16 30 41 73 54 95 13 22 22 42 21 44 -2 2 1 7 6 10
5 3 23 29 38 57 16 29 57 101 92 161 34 60 62 113 62 117 0 4 7 14 15 23 8 8
13 19 10 24 -4 5 -2 9 4 9 16 0 42 56 35 77 -4 13 -3 14 4 5 7 -10 17 1 41 43
18 32 33 65 34 75 1 10 4 17 9 14 10 -7 26 28 20 45 -3 8 0 11 6 7 14 -9 40
43 35 69 -3 16 -2 17 6 5 10 -13 15 -7 12 13 0 4 4 7 10 7 6 0 8 7 5 16 -3 8
-2 13 3 10 4 -3 20 16 34 43 25 45 26 49 10 72 -9 13 -22 27 -27 31 -6 4 -7 8
-3 8 4 0 3 9 -3 20 -6 11 -16 18 -22 14 -6 -4 -9 -1 -6 7 5 14 -49 121 -64
127 -4 2 -8 8 -8 14 0 8 -45 91 -80 148 -5 8 -47 80 -92 160 -45 80 -86 147
-90 148 -4 2 -8 8 -8 14 0 19 -142 262 -164 281 -12 10 -15 16 -7 12 7 -4 -2
20 -20 53 -19 33 -38 58 -44 55 -5 -4 -7 -3 -3 2 7 7 -17 63 -31 75 -3 3 -14
21 -24 40 -28 57 -69 125 -79 131 -5 3 -9 9 -8 13 3 15 -54 105 -63 99 -6 -3
-7 -1 -4 4 4 6 -10 41 -30 77 -20 37 -40 61 -43 55 -8 -12 -24 18 -21 38 1 10
-49 111 -82 165 -6 9 -18 14 -26 11 -13 -4 -13 -3 -3 5 11 7 1 31 -46 113
l-60 104 -77 2 c-68 2 -75 0 -59 -12 18 -13 18 -14 -3 -8 -13 3 -23 9 -23 14
0 13 -77 11 -85 -1 -5 -8 -11 -8 -19 -1 -8 7 -225 10 -625 9 -382 -1 -607 -5
-599 -10 9 -7 4 -7 -12 -2 -14 4 -66 9 -116 11 -85 3 -92 2 -97 -17 -3 -12
-13 -20 -24 -19 -16 1 -16 2 0 6 24 6 22 33 -3 33 -12 0 -20 -7 -20 -17 -1
-17 -1 -17 -11 0 -12 20 -45 23 -52 5 -4 -10 -6 -10 -6 0 -1 15 -347 17 -356
1 -4 -5 -14 -9 -23 -8 -14 0 -13 2 3 8 12 5 -16 8 -68 7 -80 -1 -89 -3 -103
-24z m86 -70 c0 4 14 2 31 -4 36 -12 52 -3 18 11 -20 8 -20 10 -5 10 10 1 24
-6 30 -15 9 -12 17 -13 38 -5 18 7 29 7 33 1 4 -6 43 -10 88 -10 57 0 77 3 67
10 -12 8 -10 10 8 10 14 0 21 -4 17 -11 -5 -7 8 -9 37 -7 29 2 42 7 40 16 -1
8 2 11 8 7 6 -3 8 -11 5 -16 -4 -5 10 -9 29 -9 23 0 39 6 45 18 10 16 10 16
11 0 0 -21 39 -24 72 -7 11 6 18 7 15 1 -4 -5 36 -10 103 -10 63 -1 112 2 115
8 4 6 13 7 23 1 21 -11 580 -12 587 0 3 4 20 3 38 -2 43 -12 47 -12 48 9 1 15
2 15 6 1 4 -15 35 -17 299 -18 163 -1 293 2 290 7 -2 4 4 8 14 8 10 0 16 -4
13 -9 -3 -5 3 -7 13 -5 11 2 18 10 16 16 -1 7 3 12 9 12 6 0 9 -7 5 -15 -4
-12 2 -14 34 -12 21 2 39 1 38 -2 -2 -18 4 -21 25 -11 21 11 21 10 3 -4 -17
-13 -17 -19 -6 -46 7 -16 16 -30 20 -30 4 0 11 -12 14 -26 5 -17 12 -24 21
-20 8 3 15 1 15 -4 0 -6 -6 -10 -12 -10 -8 -1 -6 -6 5 -14 10 -8 17 -16 15
-19 -8 -11 79 -150 99 -158 13 -5 23 -11 23 -14 0 -4 -4 -3 -10 0 -13 8 -13
-8 2 -40 6 -14 18 -25 25 -25 8 0 12 -4 8 -9 -6 -11 15 -61 26 -61 4 0 10 -11
13 -25 4 -16 11 -23 18 -19 7 4 8 3 4 -4 -10 -16 12 -54 26 -46 7 4 8 3 4 -4
-6 -9 46 -117 64 -132 3 -3 21 -35 40 -72 19 -38 37 -68 41 -68 4 0 10 -11 13
-24 3 -14 14 -32 23 -42 10 -9 18 -24 20 -33 1 -8 8 -20 15 -26 7 -5 14 -17
16 -24 4 -18 71 -134 82 -141 4 -3 9 -12 11 -21 7 -30 194 -347 201 -342 5 2
7 1 6 -4 -4 -13 23 -73 33 -73 5 0 8 -6 7 -12 -2 -7 4 -12 13 -12 10 1 16 -6
15 -20 -1 -28 75 -167 87 -159 6 3 7 1 4 -5 -4 -5 11 -42 33 -80 l41 -71 -80
-138 c-44 -76 -76 -139 -71 -141 5 -2 6 -10 3 -18 -4 -11 -8 -12 -13 -5 -4 7
-14 -4 -26 -26 -10 -21 -25 -44 -32 -52 -7 -7 -10 -21 -7 -29 3 -9 3 -13 -1
-9 -9 9 -65 -78 -67 -103 -1 -10 -4 -17 -8 -15 -8 5 -55 -85 -51 -98 1 -5 -1
-6 -6 -3 -5 3 -14 -6 -21 -20 -9 -21 -9 -30 1 -43 11 -14 11 -14 -3 -3 -14 11
-24 -2 -80 -100 -35 -62 -63 -119 -63 -125 1 -7 -1 -11 -5 -8 -14 8 -62 -100
-55 -120 7 -17 5 -18 -8 -8 -12 11 -17 9 -26 -13 -16 -33 -15 -37 4 -30 9 3
12 2 9 -5 -4 -6 -13 -8 -20 -5 -9 3 -23 -12 -39 -40 -14 -24 -19 -42 -13 -38
7 3 5 0 -4 -8 -26 -22 -120 -188 -113 -200 4 -6 3 -8 -2 -5 -9 5 -77 -104 -74
-119 1 -4 -2 -10 -7 -13 -11 -7 -83 -129 -83 -140 0 -4 -11 -22 -25 -41 -13
-18 -22 -37 -19 -41 3 -5 0 -9 -5 -9 -6 0 -11 -7 -11 -15 0 -8 -4 -15 -8 -15
-13 0 -33 -50 -26 -62 4 -7 2 -8 -4 -4 -6 3 -16 -3 -22 -14 -6 -11 -8 -20 -5
-20 4 0 -1 -7 -9 -16 -9 -8 -16 -23 -16 -32 0 -10 -3 -13 -8 -6 -10 15 -164
16 -174 1 -5 -8 -8 -9 -8 -1 0 8 -32 12 -100 12 -74 0 -98 -3 -93 -11 5 -9 3
-9 -8 -1 -19 14 -465 18 -474 4 -3 -6 -12 -10 -18 -10 -7 0 -6 4 3 10 12 8 9
10 -12 10 -16 0 -28 -6 -28 -12 0 -8 -3 -9 -8 -3 -11 16 -44 18 -53 3 -7 -10
-9 -10 -9 0 0 9 -27 12 -100 12 -83 0 -101 -3 -110 -18 -10 -15 -11 -15 -6 0
5 16 -17 17 -285 17 -220 0 -289 -3 -289 -12 0 -9 -2 -9 -8 -1 -10 15 -202 15
-221 0 -12 -9 -13 -8 -7 2 6 11 -1 13 -30 12 -22 -1 -74 -2 -116 -1 l-78 1
-20 40 c-11 22 -25 40 -31 40 -6 0 -8 4 -5 8 2 4 -13 37 -35 72 -21 36 -44 77
-50 92 -6 17 -16 25 -22 21 -7 -3 -9 -3 -5 2 11 12 -43 105 -61 106 -10 0 -12
2 -4 6 10 3 10 10 2 24 -5 11 -15 16 -21 13 -7 -5 -9 -2 -6 7 3 9 -9 42 -28
75 -19 32 -34 52 -34 44 0 -13 -2 -13 -9 0 -6 8 -7 18 -5 22 6 9 -73 149 -90
160 -6 4 -7 8 -2 8 5 0 2 8 -6 18 -9 9 -19 27 -23 40 -3 12 -11 20 -16 16 -5
-3 -8 -2 -7 3 4 13 -23 73 -33 73 -5 0 -9 5 -9 11 0 12 -99 191 -111 199 -3 3
-9 15 -13 28 -4 12 -12 19 -18 16 -7 -4 -8 -2 -4 4 8 14 -28 74 -39 64 -5 -4
-5 -2 -2 5 4 6 -41 94 -99 195 -59 101 -120 208 -137 238 -17 30 -34 57 -39
58 -4 2 -8 8 -8 14 0 6 -27 58 -60 115 -49 86 -58 108 -49 124 5 11 7 25 3 31
-4 6 -3 8 3 5 10 -6 83 110 83 131 0 7 4 12 9 12 5 0 12 7 15 16 3 8 2 13 -3
10 -5 -4 -7 3 -4 15 4 12 9 16 13 10 10 -17 51 64 44 85 -4 14 -3 15 4 6 6
-10 23 11 61 78 28 50 49 96 45 102 -4 6 -3 8 3 5 10 -6 70 91 65 106 -1 4 3
7 9 7 6 0 8 7 5 16 -3 8 -2 13 3 10 8 -5 39 46 86 139 11 22 24 43 29 46 5 4
5 13 1 20 -5 8 -5 11 0 7 11 -11 47 50 39 65 -4 7 -4 9 1 5 10 -9 34 21 35 44
0 9 4 18 9 20 5 2 34 46 65 99 38 64 54 103 50 115 -5 16 -4 16 5 4 6 -8 11
-12 11 -7 0 14 4 22 16 35 7 7 11 19 8 27 -4 9 0 15 7 15 13 0 63 80 60 95 -1
3 8 15 19 27 20 22 24 32 21 57 -2 7 2 11 7 8 12 -8 124 191 116 205 -4 6 -3
8 3 5 10 -6 20 6 21 27 0 5 4 12 9 15 13 9 56 81 48 81 -3 0 1 7 10 16 12 12
13 19 5 24 -8 5 -4 9 10 13 12 3 19 10 15 16 -3 6 -1 11 4 11 6 0 11 4 11 8 0
5 -15 7 -32 5 -31 -3 -31 -2 7 10 34 11 40 17 37 38 -2 19 0 21 8 9 5 -8 10
-12 10 -8z"/>
<path d="M1269 3920 c-17 -16 -28 -34 -24 -40 3 -5 1 -10 -5 -10 -6 0 -9 -4
-6 -9 3 -5 0 -11 -7 -14 -6 -3 -28 -36 -47 -73 -19 -38 -41 -74 -47 -82 -7 -7
-13 -18 -13 -24 0 -5 -9 -21 -20 -35 -12 -16 -18 -35 -15 -47 3 -12 2 -15 -1
-8 -7 16 -15 6 -64 -83 -60 -110 -60 -109 -49 -116 6 -4 3 -8 -8 -11 -18 -5
-181 -273 -176 -290 2 -4 -1 -8 -7 -8 -6 0 -6 -9 0 -26 6 -14 10 -33 9 -42 0
-9 -5 -1 -11 18 l-10 35 -24 -40 c-13 -22 -22 -46 -19 -53 3 -7 1 -10 -5 -7
-5 3 -17 -12 -26 -32 -10 -21 -23 -41 -28 -45 -7 -5 -7 -8 -1 -8 6 0 6 -3 -1
-8 -13 -9 -68 -102 -60 -102 3 0 -3 -9 -14 -20 -12 -12 -18 -25 -15 -30 4 -6
1 -10 -4 -10 -6 0 -11 -7 -11 -15 0 -8 -3 -15 -7 -15 -5 0 -24 -30 -43 -67
-19 -37 -41 -74 -48 -81 -7 -8 -11 -21 -8 -29 3 -8 2 -12 -3 -8 -5 3 -25 -23
-44 -57 -19 -35 -47 -84 -61 -110 -14 -26 -26 -54 -26 -63 0 -9 -4 -13 -10
-10 -5 3 -12 -6 -16 -20 -3 -14 -11 -25 -16 -25 -6 0 -7 -7 -4 -16 3 -8 2 -12
-4 -9 -6 3 -10 1 -10 -5 0 -6 -10 -24 -21 -39 -13 -17 -18 -34 -14 -42 5 -7 4
-10 -2 -6 -20 12 -24 -25 -6 -52 10 -14 26 -43 36 -63 11 -21 24 -35 30 -31 6
3 7 1 3 -5 -4 -6 26 -67 65 -134 40 -68 86 -149 104 -181 18 -32 38 -66 46
-76 8 -10 15 -22 16 -28 4 -17 75 -137 87 -145 6 -4 7 -8 2 -8 -5 0 -3 -8 6
-17 8 -10 20 -29 27 -43 6 -14 20 -39 29 -55 9 -17 30 -54 46 -83 16 -28 33
-49 39 -45 5 3 7 0 5 -8 -6 -14 27 -78 46 -91 6 -4 8 -8 3 -8 -6 0 19 -46 33
-60 3 -3 13 -23 23 -44 14 -30 21 -36 27 -26 5 8 12 11 16 7 4 -4 3 -12 -3
-18 -13 -13 -6 -42 8 -33 5 3 9 -3 10 -13 1 -26 55 -118 68 -116 5 2 8 -4 4
-12 -3 -9 1 -23 9 -33 9 -9 18 -24 21 -32 4 -12 6 -11 6 3 1 9 5 17 11 17 6 0
6 -9 1 -22 -6 -18 5 -45 54 -130 34 -60 66 -105 71 -100 5 4 6 3 2 -2 -10 -12
27 -82 47 -90 9 -3 13 -10 10 -16 -8 -14 26 -70 38 -63 6 3 7 1 4 -5 -4 -5 -4
-17 -1 -26 5 -14 35 -16 230 -15 123 0 224 4 224 9 0 4 7 11 16 14 13 5 14 4
6 -7 -10 -11 9 -14 105 -15 72 -1 122 3 130 10 8 6 13 7 13 0 0 -14 410 -14
427 0 8 6 13 7 13 1 0 -16 782 -15 792 0 6 9 8 9 8 0 0 -10 29 -13 109 -13
l109 0 12 31 c10 22 10 33 1 42 -14 14 -14 27 -1 27 6 0 10 -7 10 -15 0 -29
15 -14 47 44 23 42 29 61 20 64 -7 3 -5 6 5 6 10 1 24 14 33 31 18 35 18 37 3
43 -7 2 -5 3 5 1 12 -2 23 9 35 34 9 20 23 43 30 50 15 17 15 24 0 42 -11 12
-10 12 3 2 13 -10 19 -5 38 28 12 22 19 44 16 50 -3 5 0 10 8 10 16 0 40 47
31 61 -3 5 -1 8 6 7 6 -2 27 29 48 67 20 39 40 72 43 75 4 3 24 37 45 76 22
39 60 106 86 150 26 43 46 85 43 92 -3 7 0 10 5 7 5 -3 18 11 27 32 10 21 24
44 31 52 7 7 11 20 8 28 -3 8 -2 12 3 9 8 -5 63 86 61 100 -1 4 2 10 8 13 21
14 62 99 56 117 -4 14 -3 15 4 5 12 -16 27 3 16 21 -5 7 -3 8 6 3 10 -6 12 -4
7 9 -4 9 -3 15 1 12 4 -3 14 4 21 16 10 16 10 19 -1 13 -7 -3 -6 -1 2 7 27 23
62 87 54 99 -4 7 -3 9 4 5 10 -6 28 30 24 47 -1 5 2 6 7 3 5 -3 12 1 15 10 8
22 8 26 -4 19 -6 -3 -10 -1 -10 4 0 6 9 11 19 11 20 0 35 25 24 42 -3 7 -1 8
5 4 18 -11 14 3 -8 34 -15 21 -17 31 -9 36 7 4 9 3 6 -2 -3 -5 3 -20 13 -33
l18 -24 11 22 c13 24 6 45 -11 35 -7 -4 -8 -2 -4 5 6 9 11 9 21 1 10 -8 20 2
44 44 28 51 33 95 8 79 -6 -4 -8 0 -4 10 3 10 2 17 -3 17 -6 0 -9 3 -8 8 3 9
-62 124 -75 133 -5 3 -9 10 -9 15 -1 21 -11 33 -21 27 -6 -3 -7 -1 -3 5 8 13
-122 245 -133 238 -4 -3 -7 4 -8 14 -2 21 -69 141 -85 151 -5 3 -9 9 -9 13 3
20 -1 26 -15 26 -8 0 -13 4 -10 9 9 14 -5 42 -17 34 -5 -3 -7 -1 -3 5 6 10
-55 124 -81 150 -7 7 -13 20 -13 28 0 9 -5 12 -12 8 -7 -4 -8 -3 -4 4 4 6 2
21 -5 33 -9 18 -13 19 -21 8 -7 -10 -8 -8 -3 7 3 13 0 28 -8 35 -7 8 -14 17
-15 21 -8 26 -15 37 -22 33 -4 -3 -11 2 -14 11 -4 10 -2 13 7 7 6 -4 3 6 -7
22 -11 16 -28 46 -40 67 -11 21 -26 38 -33 38 -8 0 -12 4 -8 9 7 13 -26 82
-37 75 -4 -3 -8 2 -8 11 0 21 -149 285 -160 285 -5 0 -10 -5 -12 -10 -2 -6 -8
-2 -15 9 -10 16 -9 18 8 14 19 -5 19 -5 2 26 -10 17 -24 31 -32 31 -8 0 -11 3
-8 7 4 3 1 13 -6 21 -10 13 -9 14 1 8 8 -5 3 10 -10 33 -12 22 -30 41 -38 41
-13 0 -13 1 0 10 12 8 10 10 -10 10 -17 0 -21 3 -12 8 7 5 10 16 6 25 -3 9
-10 14 -15 11 -5 -3 -6 3 -2 12 5 14 3 16 -11 11 -10 -4 -15 -3 -11 3 3 5 1
18 -4 27 -6 11 -11 13 -11 5 0 -8 -5 -10 -12 -5 -19 11 -112 11 -120 -2 -5 -7
-8 -7 -8 1 0 7 -100 11 -310 12 -290 2 -309 1 -304 -16 5 -15 4 -15 -5 -1 -8
12 -33 15 -125 17 -110 1 -116 0 -106 -18 5 -10 15 -21 22 -23 8 -4 7 -6 -4
-6 -9 -1 -18 -7 -21 -13 -2 -7 -8 -10 -12 -6 -4 4 -3 14 3 21 9 10 6 17 -8 30
-22 18 -45 23 -35 7 3 -5 -1 -10 -9 -10 -9 0 -16 5 -16 10 0 6 -9 10 -20 10
-11 0 -20 -5 -20 -11 0 -8 -4 -8 -15 1 -16 13 -75 5 -75 -11 0 -5 -4 -9 -10
-9 -5 0 -10 7 -10 15 0 19 -66 21 -73 3 -4 -10 -6 -10 -6 0 -1 8 -24 12 -80
12 -54 0 -81 -4 -84 -12 -4 -10 -6 -10 -6 0 -1 14 -71 17 -71 3 0 -5 9 -7 20
-4 11 3 20 0 20 -6 0 -17 -40 -13 -46 4 -9 22 -74 20 -75 -2 0 -15 -2 -15 -9
2 -6 13 -9 15 -9 5 -1 -9 -4 -11 -9 -5 -4 6 -84 11 -197 13 -104 1 -185 -1
-179 -6 6 -4 14 -16 18 -27 5 -15 1 -13 -17 8 -35 40 -97 38 -138 -3z m1191
-55 c0 -3 -10 -10 -22 -15 -15 -6 156 -9 457 -9 546 1 508 1 501 -9 -8 -13 22
-45 38 -39 9 4 18 1 22 -5 4 -7 3 -8 -5 -4 -30 19 -17 -29 30 -110 28 -49 63
-109 77 -134 44 -80 105 -185 114 -195 4 -5 26 -44 47 -85 22 -41 45 -74 51
-72 6 1 9 -2 5 -8 -8 -13 35 -91 47 -84 5 3 9 0 7 -7 -3 -25 1 -40 9 -35 5 3
9 -1 9 -8 0 -11 29 -65 73 -136 5 -8 31 -54 58 -102 27 -49 52 -85 56 -80 4 4
6 2 5 -3 -6 -20 13 -55 29 -56 9 0 12 -3 5 -5 -7 -3 -3 -20 14 -50 14 -25 29
-41 35 -38 7 4 8 2 4 -4 -4 -6 28 -72 71 -147 43 -75 85 -150 93 -166 9 -16
19 -27 23 -24 4 3 5 2 2 -1 -6 -9 47 -104 58 -104 5 0 6 -4 2 -9 -3 -5 -1 -12
5 -16 32 -20 -11 -25 -227 -27 l-238 -3 -14 -44 -14 -45 -46 232 c-25 127 -51
236 -57 242 -6 6 -18 8 -26 5 -19 -7 -10 43 -124 -679 -71 -444 -91 -551 -96
-520 -5 21 -42 426 -83 899 -42 473 -78 870 -81 883 -3 15 -12 22 -29 22 -29
0 -24 34 -71 -475 -19 -214 -37 -391 -39 -393 -2 -2 -15 18 -29 45 -28 57 -47
76 -68 68 -9 -4 -40 -87 -78 -206 -35 -109 -67 -196 -71 -192 -4 5 -44 109
-89 233 -45 124 -88 231 -94 238 -26 27 -44 -2 -96 -153 l-52 -155 -1117 -1
c-1088 -1 -1203 0 -1209 6 -2 1 7 19 19 39 11 20 16 36 10 36 -6 0 -8 7 -4 16
4 11 8 12 13 4 8 -13 80 108 80 135 0 9 4 14 9 11 11 -7 23 22 15 35 -3 5 -1
8 6 7 6 -2 27 29 48 67 20 39 40 72 43 75 11 10 109 188 109 199 0 6 5 11 11
11 5 0 8 4 5 9 -4 5 -2 11 2 13 5 1 30 39 55 83 33 56 42 82 34 87 -8 5 -7 8
5 8 22 0 32 18 30 50 -1 15 5 35 13 46 14 18 14 17 5 -9 -15 -42 -12 -45 10
-12 11 17 20 38 20 48 0 10 4 16 9 12 5 -3 13 5 17 17 4 13 15 34 25 47 14 17
16 27 9 37 -7 8 -7 14 -1 18 5 3 11 1 13 -5 2 -6 13 6 23 27 11 22 28 50 38
63 21 29 22 42 2 35 -8 -4 -15 -1 -15 6 0 6 4 9 8 6 25 -15 105 105 91 139
-12 31 -10 42 5 22 11 -14 15 -15 25 -3 6 7 8 21 5 30 -4 11 -2 16 6 14 6 -2
20 11 29 29 10 17 25 43 34 57 10 14 13 26 8 26 -6 0 -8 7 -4 16 3 10 8 12 12
5 7 -10 78 107 73 122 -1 4 2 7 8 7 5 0 6 7 3 17 -4 11 -3 14 5 9 7 -4 17 3
24 18 8 18 19 26 37 26 14 1 134 1 266 1 169 1 242 4 247 13 6 8 8 8 8 -1 0
-10 43 -12 181 -11 99 1 182 5 185 10 3 4 15 8 27 7 21 0 21 -1 2 -9 -13 -5 5
-8 53 -8 54 -1 71 2 66 11 -4 7 -4 9 0 6 6 -6 29 -2 64 10 1 1 2 -1 2 -4z
m965 -2021 c42 -467 78 -859 81 -872 5 -26 30 -40 46 -24 6 6 57 302 114 658
57 356 105 649 107 650 2 2 22 -94 45 -213 23 -119 46 -221 52 -227 22 -22 45
10 62 85 10 41 20 84 23 97 5 22 6 22 214 22 178 0 208 -2 208 -15 0 -8 -2
-13 -5 -10 -5 5 -300 -505 -304 -526 -2 -7 -11 -21 -20 -31 -21 -21 -23 -35
-5 -41 6 -2 5 -3 -4 -2 -19 3 -93 -120 -83 -137 4 -7 3 -8 -4 -4 -15 9 -44
-48 -36 -71 4 -13 3 -14 -3 -5 -9 12 -32 -23 -143 -223 -12 -22 -44 -77 -71
-123 -27 -45 -49 -85 -49 -88 0 -3 -9 -19 -21 -35 -11 -16 -17 -29 -12 -29 4
0 3 -4 -3 -8 -13 -9 -68 -102 -60 -102 3 0 -3 -9 -14 -20 -12 -12 -18 -25 -15
-30 3 -4 1 -10 -4 -12 -5 -1 -34 -46 -65 -98 -48 -82 -53 -96 -38 -102 14 -5
13 -7 -5 -7 -12 -1 -25 -5 -28 -11 -4 -6 -79 -10 -193 -10 -132 1 -182 4 -169
11 26 15 22 65 -8 85 -13 9 -43 43 -65 75 l-41 60 3 92 3 92 31 3 32 3 -2 137
-1 137 55 18 c52 18 55 18 68 0 9 -13 11 -33 7 -70 -4 -35 -3 -53 4 -53 6 0
11 -7 11 -16 0 -36 25 -4 28 36 4 47 -24 165 -42 178 -11 9 -149 54 -163 54
-25 0 -39 19 -35 48 2 16 8 33 13 36 17 10 9 41 -17 65 -25 23 -26 23 -56 6
-16 -9 -33 -15 -36 -13 -4 2 -8 -6 -9 -17 -1 -12 -5 -35 -8 -50 -6 -20 -3 -31
9 -40 37 -28 -6 -43 -144 -50 l-45 -2 -6 50 c-5 39 -3 56 10 75 18 27 22 79 6
82 -5 0 -17 -10 -27 -23 -13 -17 -20 -51 -25 -123 -5 -86 -4 -100 10 -108 10
-5 17 -14 17 -21 0 -7 21 -23 48 -37 l47 -25 -1 -195 -1 -196 -33 -84 c-22
-56 -47 -99 -72 -124 -45 -47 -51 -86 -13 -86 14 0 29 8 36 21 7 13 17 19 29
16 12 -3 31 6 50 23 35 31 90 113 90 135 0 21 11 45 21 45 5 0 9 -8 9 -19 0
-40 81 -155 121 -171 15 -7 35 -23 44 -36 l15 -24 -132 -1 c-141 0 -616 0
-658 1 -19 0 -22 2 -10 9 8 6 17 8 21 6 3 -3 5 23 4 57 -2 47 -7 65 -22 77
-10 9 -34 43 -52 76 -19 33 -48 76 -66 95 -21 23 -39 60 -53 109 -12 41 -20
76 -19 78 2 2 20 -4 40 -12 45 -19 46 -11 6 61 -28 49 -30 58 -19 82 l12 27
24 -30 c13 -16 24 -41 24 -55 0 -18 3 -21 9 -11 11 18 80 -56 100 -108 18 -45
15 -43 35 -35 25 10 19 33 -23 88 -21 28 -46 66 -56 85 l-17 33 23 -16 c13 -9
34 -16 48 -16 23 0 22 1 -9 23 -33 22 -63 74 -38 64 7 -2 24 -8 38 -12 20 -6
23 -5 13 5 -10 11 -6 20 17 47 37 42 43 78 7 45 -31 -30 -41 -28 -21 3 l17 26
-27 -12 c-36 -17 -48 1 -40 57 3 24 1 51 -5 63 -11 21 -91 68 -91 54 0 -4 -5
-2 -11 4 -6 6 -24 7 -42 4 -26 -6 -31 -11 -29 -29 2 -12 0 -22 -5 -22 -8 0
-16 8 -88 80 -40 40 -62 46 -94 23 -14 -10 -37 -24 -51 -31 -34 -17 -57 -67
-40 -87 18 -21 29 -19 39 8 9 24 65 77 81 77 5 0 12 -10 16 -22 3 -13 13 -31
22 -40 14 -16 13 -18 -5 -18 -12 0 -25 -11 -31 -26 -9 -18 -9 -23 -1 -18 8 5
8 1 0 -15 -16 -29 -40 -40 -105 -47 -50 -6 -54 -8 -45 -25 7 -14 6 -19 -3 -19
-13 0 22 -18 80 -40 31 -12 32 -14 32 -70 0 -68 -13 -86 -87 -124 -29 -14 -69
-40 -89 -58 l-37 -32 6 -101 c7 -133 23 -195 50 -195 19 0 19 -1 4 -18 -23
-25 -21 -32 8 -32 14 0 28 -7 31 -15 4 -8 9 -13 14 -10 4 2 5 -6 3 -19 -3 -16
0 -23 11 -23 20 0 69 146 54 165 -6 6 -16 12 -24 12 -22 0 -33 32 -36 109 l-3
73 40 13 c22 6 54 19 72 28 31 16 33 16 61 -8 16 -14 60 -70 98 -126 40 -60
83 -111 105 -126 27 -18 35 -29 32 -44 -4 -12 0 -19 10 -19 17 0 30 -39 18
-54 -5 -6 -7 -19 -6 -28 3 -14 -4 -18 -28 -18 -35 -1 -519 -1 -664 0 l-93 0
-27 43 c-15 23 -41 67 -57 98 -92 167 -141 247 -150 242 -5 -3 -6 -1 -2 5 4 7
1 21 -7 33 -8 11 -17 17 -19 12 -3 -4 -3 -2 -1 6 3 14 -33 81 -51 93 -6 4 -7
8 -3 8 5 0 5 5 1 11 -4 8 -9 7 -16 -2 -7 -10 -9 -8 -5 7 4 21 -55 139 -65 129
-2 -3 -5 1 -5 8 0 23 -97 186 -107 180 -5 -4 -6 -1 -2 6 5 7 1 20 -7 29 -7 9
-17 25 -20 35 -4 11 -12 15 -18 11 -8 -4 -9 -3 -5 4 10 16 -22 74 -36 66 -7
-4 -8 -3 -4 4 7 12 -19 72 -33 72 -4 0 -8 6 -8 13 0 15 -134 251 -145 255 -4
2 -8 8 -8 14 0 6 -35 71 -77 144 -43 74 -85 148 -93 165 -9 16 -18 27 -21 24
-3 -3 -6 2 -6 10 0 10 10 15 31 15 17 0 547 0 1178 0 l1147 0 19 52 c11 29 30
85 43 125 12 40 25 70 29 68 4 -2 44 -107 90 -232 46 -125 89 -234 96 -242 28
-30 43 -1 110 208 48 149 71 208 79 201 6 -5 24 -36 40 -69 30 -63 50 -80 71
-59 8 9 23 120 41 320 15 169 29 306 30 304 2 -1 37 -385 78 -852z"/>
<path d="M1527 3352 c-9 -21 -17 -44 -17 -50 0 -7 -4 -12 -10 -12 -5 0 -10
-11 -10 -25 0 -17 16 -43 45 -74 41 -44 75 -104 75 -131 0 -8 -11 -9 -29 -5
-33 7 -61 -14 -61 -46 0 -24 37 -39 68 -28 34 13 39 12 50 -18 15 -40 34 -185
25 -193 -5 -4 -47 -13 -96 -20 -54 -7 -96 -19 -110 -30 -22 -18 -20 -19 88
-13 101 4 114 3 155 -19 55 -28 90 -78 90 -127 0 -55 -31 -130 -72 -172 -36
-37 -131 -93 -147 -87 -8 3 24 172 53 282 7 30 11 57 8 60 -10 11 -70 6 -80
-7 -11 -13 -61 -203 -87 -335 -19 -95 -13 -112 40 -112 45 0 145 32 198 63 60
35 145 130 175 195 32 71 28 144 -12 197 -33 43 -99 93 -135 102 -14 3 -29 11
-33 17 -4 6 -8 54 -8 106 l0 96 39 38 c35 34 70 91 84 137 3 9 -1 26 -9 37
-12 18 -11 22 11 36 28 18 33 55 12 96 -17 34 -41 32 -47 -4 -5 -32 -17 -37
-101 -50 l-45 -7 -35 67 c-19 37 -39 69 -45 71 -5 2 -18 -14 -27 -35z"/>
<path d="M1278 2781 c-86 -34 -180 -113 -198 -166 -20 -62 15 -104 121 -145
123 -49 144 -79 89 -130 -30 -28 -164 -90 -194 -90 -25 0 -19 29 14 67 40 45
39 57 -7 50 -65 -11 -128 -91 -121 -153 8 -72 104 -68 265 11 65 32 103 58
132 91 78 88 50 143 -113 223 -74 36 -86 45 -86 67 0 44 110 124 171 124 36 0
40 8 23 41 -17 33 -31 35 -96 10z"/>
<path d="M2240 2791 c-72 -22 -179 -96 -209 -145 -46 -74 -13 -129 105 -176
65 -25 124 -65 124 -82 0 -27 -81 -86 -154 -113 -100 -36 -115 -26 -62 42 37
47 37 48 14 52 -35 5 -85 -28 -118 -77 -35 -53 -38 -84 -10 -112 28 -28 75
-25 172 10 148 54 240 125 254 198 9 43 -41 93 -145 146 -102 51 -113 65 -85
103 29 40 121 93 161 93 37 0 42 13 17 48 -16 23 -24 25 -64 13z"/>
</g>
</svg>
